<svg viewBox="0 0 24 24" xmlns="http://www.w3.org/2000/svg">
  <path fill="currentColor" fill-rule="evenodd" d="M13 3a1 1 0 1 0-2 0v1a1 1 0 1 0 2 0V3ZM6.3 4.9a1 1 0 0 0-1.4 1.4l.7.7A1 1 0 0 0 7 5.6l-.7-.7Zm12.8 1.4a1 1 0 0 0-1.4-1.4l-.7.7A1 1 0 0 0 18.4 7l.7-.7ZM3 11a1 1 0 1 0 0 2h1a1 1 0 1 0 0-2H3Zm17 0a1 1 0 1 0 0 2h1a1 1 0 1 0 0-2h-1ZM7 18.4A1 1 0 1 0 5.6 17l-.7.7a1 1 0 1 0 1.4 1.4l.7-.7ZM18.4 17a1 1 0 0 0-1.4 1.4l.7.7a1 1 0 0 0 1.4-1.4l-.7-.7ZM13 20a1 1 0 1 0-2 0v1a1 1 0 1 0 2 0v-1Zm4-8a5 5 0 1 1-10 0 5 5 0 0 1 10 0Z" clip-rule="evenodd"/>
</svg>